<?xml version="1.0" encoding="UTF-8" standalone="no"?>
<svg
   version="1.1"
   id="Ebene_1"
   x="0px"
   y="0px"
   width="300px"
   height="300px"
   viewBox="0 0 300 300"
   enable-background="new 0 0 300 300"
   xml:space="preserve"
   sodipodi:docname="Paragliding_hike_and_fly_pictogram.svg"
   inkscape:version="1.1 (c68e22c387, 2021-05-23)"
   xmlns:inkscape="http://www.inkscape.org/namespaces/inkscape"
   xmlns:sodipodi="http://sodipodi.sourceforge.net/DTD/sodipodi-0.dtd"
   xmlns="http://www.w3.org/2000/svg"
   xmlns:svg="http://www.w3.org/2000/svg"><defs
   id="defs17" /><sodipodi:namedview
   id="namedview15"
   pagecolor="#ffffff"
   bordercolor="#666666"
   borderopacity="1.0"
   inkscape:pageshadow="2"
   inkscape:pageopacity="0.0"
   inkscape:pagecheckerboard="0"
   showgrid="false"
   inkscape:zoom="2.7733333"
   inkscape:cx="150.18029"
   inkscape:cy="207.8726"
   inkscape:window-width="1920"
   inkscape:window-height="1017"
   inkscape:window-x="1912"
   inkscape:window-y="-8"
   inkscape:window-maximized="1"
   inkscape:current-layer="Ebene_1" />


<g
   id="g160"
   inkscape:label="hike"
   transform="matrix(1.0587819,0,0,1.0587819,-160.131,-9.4422656)"><path
     fill="#010202"
     d="m 272.62952,266.702 -5.19913,-9.74896 c -1.27581,-2.39361 -3.33527,-2.38685 -4.59798,0.0148 l -1.5635,2.96943 c -1.26524,2.39995 -4.48687,4.34577 -7.19776,4.34577 h -3.68167 c -2.713,0 -6.51508,1.50478 -8.49216,3.36019 l -7.08664,6.64688 c -0.0283,0.0363 -0.0596,0.0701 -0.0917,0.10223 -0.88293,1.01221 -2.35771,1.54407 -3.88826,1.71727 -0.15504,0.0245 -0.30966,0.0406 -0.46469,0.0528 -0.0934,0.0139 -0.18716,0.0224 -0.28094,0.0278 -0.0866,0.0139 -0.17616,0.0237 -0.27375,0.0253 -0.0127,0 -0.0253,-4.2e-4 -0.038,-4.2e-4 -0.0384,0.004 -0.076,0.0102 -0.11575,0.0127 -0.44315,0.0296 -0.89771,0.0469 -1.34382,0.007 -0.17151,-0.003 -0.34177,-0.0275 -0.51328,-0.0414 -0.0731,-0.006 -0.14321,-0.0169 -0.21165,-0.0304 -0.0815,-0.006 -0.16434,-0.0161 -0.25263,-0.0363 0,0 0,0 -4.2e-4,0 -0.128,-0.01 -0.25474,-0.0325 -0.37852,-0.0684 -0.35232,-0.0642 -0.69155,-0.15377 -1.00712,-0.27671 -0.0558,-0.0152 -0.11111,-0.0346 -0.16645,-0.0533 -0.12463,-0.0275 -0.2484,-0.0659 -0.3705,-0.1242 l -2.54358,-0.91841 c -2.5512,-0.92053 -6.71827,-1.01262 -9.3096,-0.20995 l -5.74367,1.78613 c -2.59091,0.80519 -6.76686,0.73337 -9.32819,-0.15758 l -4.22411,-1.47098 c -2.56176,-0.89096 -6.33595,-0.2163 -8.43301,1.50266 l -5.27432,4.33311 c -2.09749,1.71895 -5.86112,2.35602 -8.40598,1.42493 l -6.77108,-2.4836 c -2.54486,-0.93531 -5.6275,0.25432 -6.88641,2.65849 l -1.58462,3.03026 c -1.25891,2.40207 -0.0777,4.35 2.63315,4.35 h 106.80416 c 2.71088,0 5.34235,-2.15409 5.87379,-4.81428 l 1.75909,-8.78618 c 0.52934,-2.65976 -0.0714,-6.75502 -1.34931,-9.14695 z"
     id="path12"
     style="stroke-width:0.422453"
     inkscape:label="path" /><path
     inkscape:connector-curvature="0"
     id="path13"
     d="m 221.99319,153.85538 c 6.58478,0 11.93113,-5.35645 11.93113,-11.95278 0,-6.58478 -5.3449,-11.94123 -11.93113,-11.94123 -6.59632,0 -11.95277,5.35645 -11.95277,11.94123 0,6.59633 5.35645,11.95278 11.95277,11.95278 z"
     style="stroke-width:1.4434"
     inkscape:label="head" /><path
     inkscape:connector-curvature="0"
     id="path15"
     d="m 202.21762,150.749 c 0.99726,-2.51061 -0.27219,-5.40191 -2.95129,-6.30875 l -9.37253,-3.44519 c -2.67694,-0.90717 -5.65358,0.32421 -6.70745,2.90908 l -19.61578,47.99693 c -0.99465,2.52702 0.26696,5.36905 2.95389,6.32518 l 9.41419,3.38801 c 2.63496,0.9623 5.59967,-0.33036 6.66317,-2.86833 z"
     style="stroke-width:2.12858"
     inkscape:label="pack" /><path
     style="fill:#000000;stroke:#000000;stroke-width:0.577359;stroke-linecap:butt;stroke-linejoin:miter;stroke-miterlimit:4;stroke-dasharray:none;stroke-opacity:1"
     d="m 210.20943,159.15804 c -11.16223,-0.42448 -6.92071,18.35871 -3.87723,29.02329 3.04348,10.66456 21.03791,29.37155 21.03791,29.37155 0,0 -9.23961,-19.44153 -11.23931,-30.17008 -1.9997,-10.72855 5.24086,-27.80027 -5.92137,-28.22476 z"
     id="path3769"
     inkscape:connector-curvature="0"
     sodipodi:nodetypes="zzczz"
     inkscape:label="arm" /><path
     style="fill:#000000;stroke:#000000;stroke-width:0.577359;stroke-linecap:butt;stroke-linejoin:miter;stroke-miterlimit:4;stroke-dasharray:none;stroke-opacity:1"
     d="m 194.7216,198.97701 c -10.23304,1.14569 -4.22273,16.08247 -3.96934,19.30545 0.25337,3.22298 1.30123,4.38028 -0.84741,15.54315 -1.52169,7.90555 -17.73635,38.76471 -17.73635,38.76471 0,0 26.40908,-24.22471 29.95052,-35.36326 3.54142,-11.13854 2.83563,-39.39575 -7.39742,-38.25005 z"
     id="path3769-3"
     inkscape:connector-curvature="0"
     sodipodi:nodetypes="zzsczz"
     inkscape:label="leg2" /><path
     style="fill:#000000;stroke:#000000;stroke-width:0.733133;stroke-linecap:butt;stroke-linejoin:miter;stroke-miterlimit:4;stroke-dasharray:none;stroke-opacity:1"
     d="m 197.61264,205.87411 c -3.3956,8.06814 14.93861,14.4191 21.41113,16.98859 8.42589,2.04256 3.49778,25.07111 16.6531,40.81681 0,0 5.76986,-46.05801 -5.2175,-51.57156 -10.98737,-5.51353 -29.45115,-14.302 -32.84673,-6.23384 z"
     id="path3769-1"
     inkscape:connector-curvature="0"
     sodipodi:nodetypes="zcczz"
     inkscape:label="leg1" /></g><g
   id="g24"
   inkscape:label="fly"
   transform="matrix(-0.93977629,0,0,-0.93977629,306.05157,227.68224)"><path
     d="m 31.737556,17.341936 c -0.147414,0.264241 -1.199844,3.968621 -2.463371,8.194886 -1.256893,4.309923 -2.593649,7.615842 -3.025315,7.481768 C 25.455927,32.576494 17.271396,21.776608 13.167707,15.704013 10.582461,11.783928 9.0469167,10.474702 9.1933731,12.315431 c 0.033168,0.418363 1.5003859,5.100949 3.3554499,10.426301 3.853712,11.397025 13.354212,28.154523 17.733604,31.342473 4.011408,2.796197 9.513583,2.105854 20.007363,-2.517988 15.618499,-6.883928 25.711937,-14.422856 25.352504,-18.941002 -0.266084,-3.346753 -4.000058,-5.828256 -8.350851,-5.482127 -9.486385,-0.19385 -21.078219,10.422284 -28.468332,11.526824 -0.752994,0.0597 -0.994606,-6.151573 -0.518384,-16.040731 l 0.18906,-3.972418 c 3.273598,-35.169245 -6.479681,-6.304552 -6.756305,-1.314827 z m 6.884518,-8.7150015 c 58.129064,76.5990395 29.06455,38.2995195 0,0 z"
     id="path1939"
     style="fill:#000000;stroke:none;stroke-width:0.0839334"
     sodipodi:nodetypes="ccccscccsccccccc"
     inkscape:label="legs" /><path
     d="m 85.674297,113.86586 c 10.319793,-4.69416 10.880595,-16.695031 1.047454,-22.816974 -1.773213,-1.121935 -3.730915,-1.387171 -6.99401,-1.127574 -5.103824,0.406091 -7.822075,2.222128 -10.635408,7.076895 -5.536301,9.786523 6.011197,21.581823 16.581964,16.867653 z"
     id="path1986"
     style="fill:#000000;stroke:none;stroke-width:0.0839334"
     inkscape:label="head" /><path
     d="M 62.173283,123.73685 C 54.14925,118.58077 44.699645,104.59109 45.422898,99.26828 c 0.384199,-2.82778 3.490408,-5.11628 9.307313,-6.78236 9.169444,-2.65055 9.891296,-2.975968 11.466568,-5.218365 1.152192,-1.62226 1.370956,-2.608979 0.87509,-3.946951 -2.61167,-6.961837 -14.341705,-7.28508 -23.970419,-0.631118 -8.789778,6.090322 -10.699976,11.421311 -7.478562,20.753024 3.936927,11.54654 18.594578,23.36388 29.171573,23.44577 1.946794,0.0111 1.576157,-0.37878 -2.621178,-3.15143 z"
     id="path1988"
     style="fill:#000000;stroke:none;stroke-width:0.0839334"
     inkscape:label="leftArm" /><path
     d="m 113.42061,76.553797 c 4.05569,6.893879 4.32955,15.316741 0.9189,23.656943 -2.58992,6.18658 -8.60992,15.09927 -10.57085,15.57534 -0.80744,0.19606 -0.93513,-0.0785 -0.49842,-0.79508 0.34937,-0.57344 1.32344,-4.10793 2.2415,-7.87312 3.82224,-15.952315 0.87733,-25.31454 -8.134606,-25.203058 -1.655208,-0.0258 -5.919801,0.521147 -9.479936,1.202387 -9.252586,1.635712 -13.04582,0.602299 -14.082034,-3.665611 -1.260284,-5.190688 5.253855,-10.558899 14.069762,-11.477845 9.953682,-1.012001 22.333474,3.189019 25.535684,8.580044 z"
     id="path1984"
     style="fill:#000000;stroke:none;stroke-width:0.0839334"
     inkscape:label="rightArm" /><ellipse
     id="path2156"
     cx="-140.38423"
     cy="-2.4155662"
     rx="47.95298"
     ry="0.74687749"
     style="stroke-width:0.911365"
     transform="matrix(-0.89873344,-0.43849539,0.31917853,-0.94769461,0,0)"
     inkscape:label="rightRiser" /><ellipse
     id="path2156-8"
     cx="-118.22783"
     cy="49.804276"
     rx="55.17189"
     ry="0.77603316"
     style="stroke-width:0.996456"
     transform="matrix(0.13958398,-0.99021024,0.99957931,0.02900356,0,0)"
     inkscape:label="leftRiser" /><g
     id="g127"
     inkscape:label="wing"><path
       style="fill:#000000;stroke-width:0.325921"
       d="m 180.93907,89.193084 9.73911,2.654089 -0.19857,7.985079 c -0.49377,19.857958 -3.26622,36.179518 -9.1625,53.940018 -7.16701,21.58817 -17.86629,40.39867 -32.34914,56.87335 -10.54835,11.99907 -23.09468,21.30638 -32.68583,24.24749 -3.12005,0.95679 -14.07034,2.43414 -24.770079,3.34185 -9.191224,0.77975 -26.87209,0.78535 -33.787123,0.0111 -11.842107,-1.32662 -19.776806,-3.30363 -27.053816,-6.74071 -9.988847,-4.71797 -15.923426,-11.27792 -17.895501,-19.78134 -0.670847,-2.89272 -0.64844,-8.85088 0.04607,-12.25634 0.695059,-3.40753 2.487289,-8.55277 3.931988,-11.28776 1.221993,-2.31348 1.222104,-2.25242 0.0032,2.01391 -2.722268,9.52759 -1.430106,18.43367 3.418285,23.5602 3.564853,3.76939 8.7436,5.23156 15.1153,4.26769 6.660522,-1.00758 14.035451,-4.31328 23.031683,-10.32367 12.641573,-8.44578 21.462234,-15.90993 34.498472,-29.19291 11.501341,-11.71901 21.145841,-22.96962 43.832661,-51.1321 19.49388,-24.19888 33.3009,-40.676103 34.17727,-40.786922 0.2031,-0.0258 4.75188,1.147659 10.10839,2.607395 z"
       id="path46"
       inkscape:label="top" /><path
       style="fill:#999999;stroke-width:0.230462"
       d="m 34.067148,177.02519 c 4.816624,0.61287 8.919098,1.12016 9.116559,1.12735 0.241392,0.007 0.952409,1.38942 2.172191,4.21893 3.434427,7.9668 8.448844,17.39617 12.02667,22.61546 0.684777,0.99899 1.215469,1.84309 1.179279,1.87578 -0.474748,0.42908 -6.021922,3.86362 -8.127886,5.03236 -15.353706,8.52101 -27.602677,7.66191 -32.387422,-2.27151 -1.710046,-3.55015 -1.948894,-4.76245 -1.952395,-9.90987 -0.0034,-4.89291 0.313624,-6.85279 1.894572,-11.70995 0.869009,-2.67012 3.562199,-8.28971 5.129105,-10.70241 0.785941,-1.21023 1.035809,-1.43641 1.563626,-1.4154 0.345319,0.0147 4.569041,0.52638 9.385701,1.13926 z"
       id="path59"
       inkscape:label="bottom" /></g></g></svg>
