<?xml version="1.0" encoding="iso-8859-1"?>
<!-- Generator: Adobe Illustrator 19.1.1, SVG Export Plug-In . SVG Version: 6.00 Build 0)  -->
<svg version="1.1"  xmlns="http://www.w3.org/2000/svg" xmlns:xlink="http://www.w3.org/1999/xlink" x="0px" y="0px"
	 viewBox="0 0 48 48" style="enable-background:new 0 0 48 48;" xml:space="preserve">
<g>
	<path style="fill:#FFBA57;" d="M35.5,22.001c2.486,0,4.5,2.014,4.5,4.5s-2.014,4.5-4.5,4.5s-4.5-2.014-4.5-4.5
		S33.014,22.001,35.5,22.001"/>
	<path style="fill:#FFBA57;" d="M9.827,27.821l9.452-4.297l2.593,5.753L9.002,37h24.288L21.664,19.892
		c-0.543-0.816-1.601-1.119-2.491-0.711l-11,5c-1.006,0.457-1.45,1.643-0.993,2.648C7.637,27.833,8.825,28.278,9.827,27.821z"/>
</g>
<path style="fill:#7E8CCF;" d="M44,36.001c-3,0-4-2-4-2s-1,2-4,2s-4-2-4-2s-1,2-4,2s-4-2-4-2s-1,2-4,2s-4-2-4-2s-1,2-4,2s-4-2-4-2
	s-1,2-4,2v8h40V36.001z"/>
<path style="fill:#C5CAE9;" d="M44,38.001c-3,0-4-2-4-2s-1,2-4,2s-4-2-4-2s-1,2-4,2s-4-2-4-2s-1,2-4,2s-4-2-4-2s-1,2-4,2s-4-2-4-2
	s-1,2-4,2v6h40V38.001z"/>
</svg>
